<svg xmlns="http://www.w3.org/2000/svg" version="1.1" xmlns:xlink="http://www.w3.org/1999/xlink" xmlns:svgjs="http://svgjs.dev/svgjs" width="2000" height="454" viewBox="0 0 2000 454"><g transform="matrix(1,0,0,1,-1.2121212121212466,0.4599473907580318)"><svg viewBox="0 0 396 90" data-background-color="#dc3545" preserveAspectRatio="xMidYMid meet" height="454" width="2000" xmlns="http://www.w3.org/2000/svg" xmlns:xlink="http://www.w3.org/1999/xlink"><g id="tight-bounds" transform="matrix(1,0,0,1,0.2400000000000091,-0.09117899816789077)"><svg viewBox="0 0 395.52 90.18235799633575" height="90.18235799633575" width="395.52"><g><svg viewBox="0 0 584.4130316863899 133.25178307358902" height="90.18235799633575" width="395.52"><g><rect width="5.045740603548423" height="96.9016222785506" x="408.72874503546706" y="18.17508039751921" fill="#000000" opacity="1" stroke-width="0" stroke="transparent" fill-opacity="1" class="rect-o$-0" data-fill-palette-color="primary" rx="1%" id="o$-0" data-palette-color="#ffffff"></rect></g><g transform="matrix(1,0,0,1,0,18.41612920915739)"><svg viewBox="0 0 395.52 96.41952465527424" height="96.41952465527424" width="395.52"><g id="textblocktransform"><svg viewBox="0 0 395.52 96.41952465527424" height="96.41952465527424" width="395.52" id="textblock"><g><svg viewBox="0 0 395.52 55.95124042879021" height="55.95124042879021" width="395.52"><g transform="matrix(1,0,0,1,0,0)"><svg width="395.52" viewBox="2.95 -36.1 261.18 36.95" height="55.95124042879021" data-palette-color="#ffffff"><g class="undefined-text-0" data-fill-palette-color="primary" id="text-0"><path d="M22.75-34.45L22.75-34.45 23.9-34.85Q24.55-34.85 24.65-34.45L24.65-34.45Q25.7-28.4 25.7-27.33 25.7-26.25 25-26.25L25-26.25Q24.55-26.25 24.13-27.33 23.7-28.4 23.13-29.3 22.55-30.2 22.3-30.45 22.05-30.7 21-31.65L21-31.65Q18.3-34.05 14.83-34.05 11.35-34.05 9.25-32.55 7.15-31.05 7.15-28.65 7.15-26.25 8.38-24.8 9.6-23.35 11.65-22.55 13.7-21.75 15.95-21.05L15.95-21.05Q22-19.15 24.9-16.1L24.9-16.1Q26.9-13.95 26.9-10.75L26.9-10.75Q26.9-5.5 23.55-2.43 20.2 0.65 15.25 0.65L15.25 0.65Q11.8 0.65 9.7 0.28 7.6-0.1 5.4-1.25L5.4-1.25Q4.75-1.65 3.85-5.15 2.95-8.65 2.95-9.53 2.95-10.4 3.63-10.4 4.3-10.4 4.45-9.9L4.45-9.9Q6.3-5.45 8.8-3.6L8.8-3.6Q11.5-1.55 15.33-1.55 19.15-1.55 21.43-3.53 23.7-5.5 23.7-8.7L23.7-8.7Q23.7-11.05 22.15-12.63 20.6-14.2 18.6-14.9L18.6-14.9Q11.15-17.4 8.5-18.95L8.5-18.95Q3.95-21.65 3.95-26.2 3.95-30.75 7.18-33.43 10.4-36.1 15.55-36.1L15.55-36.1Q17.45-36.1 20.08-35.27 22.7-34.45 22.75-34.45ZM35.85-17.25L35.85-20.1 35.9-25.5Q35.9-29.3 35.6-31.45L35.6-31.45Q35.45-32.7 34.27-33.4 33.1-34.1 32.22-34.1 31.35-34.1 31.07-34.43 30.8-34.75 30.8-34.95L30.8-34.95Q30.8-35.5 32.2-35.5L32.2-35.5 37.85-35.3 42.25-35.4Q43.35-35.4 43.35-34.7L43.35-34.7Q43.35-33.85 41.6-33.85L41.6-33.85Q40.6-33.85 40.15-31.8 39.7-29.75 39.7-27.6L39.7-27.6 39.7-25.75 39.6-21.15Q39.6-19.9 39.9-19.55 40.2-19.2 41.3-19.2L41.3-19.2 49.5-19.25Q49.5-19.25 58.95-19.15L58.95-19.15Q59.5-19.15 59.5-26.1L59.5-26.1 59.5-28.8Q59.5-32.55 58-33.4L58-33.4Q57.4-33.75 56.77-33.85 56.15-33.95 55.72-34.13 55.3-34.3 55.3-34.8 55.3-35.3 57.25-35.3L57.25-35.3 62.1-35.2 66-35.3Q67.15-35.3 67.15-34.65 67.15-34 66.45-34L66.45-34Q65.05-34 64.32-33.15 63.6-32.3 63.6-30.9L63.6-30.9 63.35-11.25 63.35-9.4 63.55-4.8Q63.55-1.55 67.75-1.1L67.75-1.1Q68.35-1.1 68.35-0.55L68.35-0.55Q68.35-0.2 67.85-0.1 67.35 0 65.9 0L65.9 0 62.05-0.25 57.35 0 56.5 0Q55.8 0 55.67-0.2 55.55-0.4 55.55-0.68 55.55-0.95 56.05-1.2 56.55-1.45 57.15-1.6 57.75-1.75 58.3-2.2L58.3-2.2Q59.35-2.95 59.35-6.9L59.35-6.9 59.5-15.75Q59.5-16.5 58.9-16.8 58.3-17.1 56.95-17.1 55.6-17.1 52.9-17L52.9-17 50.2-16.95 41-17.1Q40.25-17.1 40-16.8 39.75-16.5 39.75-15.25L39.75-15.25 39.55-9.1 39.55-6.95Q39.55-4.8 39.95-3.75 40.35-2.7 41.9-1.7L41.9-1.7Q42.3-1.45 43.35-1.45L43.35-1.45Q45-1.45 45-0.9L45-0.9Q45 0 43.4 0L43.4 0 39.25-0.2 33.85 0.05Q31.5 0.05 31.5-0.7L31.5-0.7Q31.5-1.4 33.05-1.6L33.05-1.6Q33.65-1.65 34.3-2.23 34.95-2.8 35.15-3.78 35.35-4.75 35.6-9.05 35.85-13.35 35.85-17.25L35.85-17.25ZM71.55-16.95L71.55-16.95Q71.55-25.35 76.59-30.73 81.64-36.1 90.89-36.1L90.89-36.1Q95.19-36.1 98.64-34.85 102.09-33.6 104.09-31.78 106.09-29.95 107.44-27.6L107.44-27.6Q109.8-23.5 109.8-19.6L109.8-19.6Q109.8-12.8 107.15-8.1L107.15-8.1Q102.09 0.8 90.19 0.8L90.19 0.8Q84.25 0.8 79.92-1.8 75.59-4.4 73.57-8.35 71.55-12.3 71.55-16.95ZM75.94-19.5L75.94-19.5Q75.94-15.05 78.3-10.4L78.3-10.4Q79.55-7.9 81.32-5.93 83.09-3.95 85.82-2.68 88.55-1.4 91.8-1.4L91.8-1.4Q95.5-1.4 99.09-3.55L99.09-3.55Q103.09-5.9 104.75-10.1L104.75-10.1Q105.69-12.35 105.69-15L105.69-15Q105.69-24.05 100.94-29.08 96.19-34.1 89.19-34.1L89.19-34.1Q83.69-34.1 79.82-30.4 75.94-26.7 75.94-19.5ZM117.69-21.55L117.69-21.55 117.64-30.05Q117.64-31.4 116.79-32.73 115.94-34.05 113.99-34.05L113.99-34.05Q112.99-34.05 112.99-34.7L112.99-34.7Q112.99-35.5 114.14-35.5L114.14-35.5 115.99-35.55 118.99-35.4 127.24-35.55Q131.94-35.55 135.34-33.18 138.74-30.8 138.74-26.35L138.74-26.35Q138.74-23.9 137.84-21.98 136.94-20.05 135.67-18.95 134.39-17.85 132.79-17.1L132.79-17.1Q130.24-15.95 128.24-15.95 126.24-15.95 124.59-16.32 122.94-16.7 122.94-17.1L122.94-17.1Q122.94-17.85 123.59-17.85L123.59-17.85Q123.84-17.85 124.62-17.65 125.39-17.45 126.34-17.45 127.29-17.45 128.59-17.78 129.89-18.1 131.29-18.82 132.69-19.55 133.59-21.03 134.49-22.5 134.49-24.45L134.49-24.45Q134.49-27.8 131.79-30.68 129.09-33.55 124.34-33.55L124.34-33.55Q122.79-33.55 122.24-32.63 121.69-31.7 121.69-28.45L121.69-28.45 121.59-7.8Q121.59-2 124.99-1.6L124.99-1.6Q125.84-1.5 126.39-1.5L126.39-1.5Q127.79-1.6 127.79-0.5L127.79-0.5Q127.79 0.35 126.64 0.35L126.64 0.35 119.49 0.1 114.84 0.3Q113.29 0.3 113.29-0.25L113.29-0.25Q113.29-1.1 113.84-1.3L113.84-1.3Q114.09-1.4 114.19-1.45 114.29-1.5 114.67-1.58 115.04-1.65 115.17-1.7 115.29-1.75 115.49-1.78 115.69-1.8 115.77-1.83 115.84-1.85 116.02-1.98 116.19-2.1 116.29-2.33 116.39-2.55 116.57-2.93 116.74-3.3 117.02-4.08 117.29-4.85 117.49-11.4 117.69-17.95 117.69-21.55ZM145.89-21.55L145.89-21.55 145.84-30.05Q145.84-31.4 144.99-32.73 144.14-34.05 142.19-34.05L142.19-34.05Q141.19-34.05 141.19-34.7L141.19-34.7Q141.19-35.5 142.34-35.5L142.34-35.5 144.19-35.55 147.19-35.4 155.44-35.55Q160.14-35.55 163.54-33.18 166.94-30.8 166.94-26.35L166.94-26.35Q166.94-23.9 166.04-21.98 165.14-20.05 163.87-18.95 162.59-17.85 160.99-17.1L160.99-17.1Q158.44-15.95 156.44-15.95 154.44-15.95 152.79-16.32 151.14-16.7 151.14-17.1L151.14-17.1Q151.14-17.85 151.79-17.85L151.79-17.85Q152.04-17.85 152.81-17.65 153.59-17.45 154.54-17.45 155.49-17.45 156.79-17.78 158.09-18.1 159.49-18.82 160.89-19.55 161.79-21.03 162.69-22.5 162.69-24.45L162.69-24.45Q162.69-27.8 159.99-30.68 157.29-33.55 152.54-33.55L152.54-33.55Q150.99-33.55 150.44-32.63 149.89-31.7 149.89-28.45L149.89-28.45 149.79-7.8Q149.79-2 153.19-1.6L153.19-1.6Q154.04-1.5 154.59-1.5L154.59-1.5Q155.99-1.6 155.99-0.5L155.99-0.5Q155.99 0.35 154.84 0.35L154.84 0.35 147.69 0.1 143.04 0.3Q141.49 0.3 141.49-0.25L141.49-0.25Q141.49-1.1 142.04-1.3L142.04-1.3Q142.29-1.4 142.39-1.45 142.49-1.5 142.87-1.58 143.24-1.65 143.37-1.7 143.49-1.75 143.69-1.78 143.89-1.8 143.97-1.83 144.04-1.85 144.22-1.98 144.39-2.1 144.49-2.33 144.59-2.55 144.76-2.93 144.94-3.3 145.22-4.08 145.49-4.85 145.69-11.4 145.89-17.95 145.89-21.55ZM174.34-17.25L174.34-20.1 174.39-25.5 174.39-27.8Q174.39-30 174.21-31.33 174.04-32.65 172.86-33.3 171.69-33.95 170.54-34 169.39-34.05 169.39-34.77 169.39-35.5 170.79-35.5L170.79-35.5 176.44-35.3 180.84-35.4Q182.19-35.4 182.19-34.7L182.19-34.7Q182.19-34.3 179.89-33.35L179.89-33.35Q178.29-32.7 178.29-27.6L178.29-27.6 178.14-9.1Q178.14-4.9 179.31-3.2 180.49-1.5 181.79-1.5L181.79-1.5 182.79-1.45Q183.14-1.45 183.49-1.28 183.84-1.1 183.84-0.7L183.84-0.7Q183.84 0 182.59 0L182.59 0 177.84-0.2 172.34 0.05Q170.09 0.05 170.09-0.7L170.09-0.7Q170.09-1.4 171.64-1.6L171.64-1.6Q172.24-1.65 172.89-2.23 173.54-2.8 173.71-3.53 173.89-4.25 174.11-9.58 174.34-14.9 174.34-17.25L174.34-17.25ZM197.34 0.2L191.98 0.1 187.73 0.2Q186.63 0.2 186.63-0.6L186.63-0.6Q186.63-1.05 187.28-1.18 187.94-1.3 188.88-1.95 189.84-2.6 190.23-4.08 190.63-5.55 191.09-13.7 191.53-21.85 191.53-25.55 191.53-29.25 190.34-31.38 189.13-33.5 186.44-33.8L186.44-33.8Q185.78-33.85 185.78-34.55L185.78-34.55Q185.78-34.85 186.13-35.13 186.48-35.4 187.03-35.4L187.03-35.4 188.94-35.35 191.38-35.45Q191.84-35.45 192.44-35.18 193.03-34.9 193.13-34.68 193.23-34.45 193.69-33.93 194.13-33.4 194.88-32.55 195.63-31.7 196.23-30.9L196.23-30.9Q203.03-22.05 214.44-9.55L214.44-9.55Q214.74-9.2 215.16-8.75 215.59-8.3 215.76-8.08 215.94-7.85 216.13-7.65L216.13-7.65Q216.49-7.3 216.69-7.3L216.69-7.3Q217.19-7.3 217.19-10.4L217.19-10.4 217.19-16.25 217.09-26.5 217.09-26.85Q217.09-31.45 215.49-32.7L215.49-32.7Q214.88-33.15 214.49-33.27 214.09-33.4 213.34-33.55L213.34-33.55Q211.28-33.95 211.28-34.68 211.28-35.4 212.24-35.4L212.24-35.4 216.99-35.35Q216.99-35.35 221.49-35.45L221.49-35.45Q222.34-35.45 222.66-35.27 222.99-35.1 222.99-34.75 222.99-34.4 222.69-34.2L222.69-34.2Q222.28-33.95 221.24-33.6L221.24-33.6Q219.59-32.7 219.59-27.95L219.59-27.95 219.59-26.05 219.03-1.3 219.03-0.3Q219.03 0.85 218.34 0.85L218.34 0.85Q217.88 0.85 217.53 0.5L217.53 0.5Q200.94-18.75 197.71-22.38 194.48-26 194.13-26L194.13-26Q193.63-26 193.63-21.93 193.63-17.85 193.44-12.38 193.23-6.9 193.23-6.4L193.23-6.4Q193.23-4.15 194.01-2.98 194.78-1.8 195.69-1.65 196.59-1.5 197.36-1.33 198.13-1.15 198.13-0.63 198.13-0.1 197.96 0.05 197.78 0.2 197.34 0.2L197.34 0.2ZM253.03-18.5L258.58-18.25 262.58-18.3 263.33-18.3Q264.13-18.3 264.13-17.85L264.13-17.85Q264.13-17.5 262.86-16.95 261.58-16.4 261.43-15.55L261.43-15.55Q261.08-13.4 261.08-10.93 261.08-8.45 261.13-7.3 261.18-6.15 261.21-5.68 261.23-5.2 261.28-4.85 261.33-4.5 261.33-4.3 261.33-4.1 260.96-3.98 260.58-3.85 259.73-3.63 258.88-3.4 258.18-2.98 257.48-2.55 257.13-2.35 256.78-2.15 256.21-1.85 255.63-1.55 255.03-1.25 254.43-0.95 253.68-0.63 252.93-0.3 252.13-0.05 251.33 0.2 250.48 0.4L250.48 0.4Q248.58 0.85 246.88 0.85L246.88 0.85Q241.43 0.85 237.41-0.63 233.38-2.1 231.18-4.6L231.18-4.6Q226.88-9.55 226.88-16.45L226.88-16.45Q226.88-21.9 229.06-26.25 231.23-30.6 235.73-33.27 240.23-35.95 246.43-35.95L246.43-35.95Q252.38-35.95 256.73-33.7L256.73-33.7Q257.73-33.15 258.26-32.77 258.78-32.4 258.91-32.4 259.03-32.4 259.56-32.77 260.08-33.15 260.28-33.15L260.28-33.15Q261.03-33.15 261.06-31.93 261.08-30.7 261.26-29.1 261.43-27.5 261.58-26.45 261.73-25.4 261.73-25.2L261.73-25.2Q261.73-24.35 261.13-24.35 260.53-24.35 260.28-24.95L260.28-24.95Q258.53-28.75 254.43-31.38 250.33-34 245.98-34L245.98-34Q239.73-34 235.66-30.08 231.58-26.15 231.58-19.2L231.58-19.2Q231.58-14.6 233.28-10.55 234.98-6.5 238.46-3.85 241.93-1.2 246.11-1.2 250.28-1.2 253.41-2.95 256.53-4.7 256.88-6.95L256.88-6.95Q257.03-8.15 257.03-13.25L257.03-13.25Q257.03-15.2 256.31-15.93 255.58-16.65 254.03-16.82 252.48-17 252.31-17.32 252.13-17.65 252.13-17.95L252.13-17.95Q252.13-18.5 253.03-18.5L253.03-18.5Z" fill="#000000" data-fill-palette-color="primary"></path></g></svg></g></svg></g><g transform="matrix(1,0,0,1,163.310208,69.15998546425729)"><svg viewBox="0 0 232.209792 27.259539191016966" height="27.259539191016966" width="232.209792"><g transform="matrix(1,0,0,1,0,0)"><svg width="232.209792" viewBox="3.95 -35.5 391.8 46" height="27.259539191016966" data-palette-color="#d8cfcf"><path d="M20.45 0L9.15-17.25 6.75-13.45 6.75 0 3.95 0 3.95-35.05 6.75-35.05 6.75-18.35 17.95-35.05 21.2-35.05 10.95-19.9 23.8 0 20.45 0ZM41.45-1.75Q39.65-0.6 37.35 0 35.05 0.6 32.75 0.6L32.75 0.6Q29.05 0.6 26.87-1.23 24.7-3.05 24.7-6.7L24.7-6.7 24.7-16.95Q24.7-21 27.22-23.25 29.75-25.5 33.9-25.5L33.9-25.5Q38.05-25.5 40.37-23.28 42.7-21.05 42.7-17.1L42.7-17.1 42.7-10.6 27.5-9.75 27.5-6.7Q27.5-4.3 29.05-3.1 30.6-1.9 33.1-1.9L33.1-1.9Q36.6-1.9 40.35-3.9L40.35-3.9 41.45-1.75ZM39.9-17.45Q39.9-20.55 37.95-21.83 36-23.1 33.85-23.1L33.85-23.1Q31.1-23.1 29.3-21.6 27.5-20.1 27.5-16.9L27.5-16.9 27.5-12.5 39.9-13.1 39.9-17.45ZM57.45 8.35Q60.8 7.1 60.8 3.15L60.8 3.15 60.8-2.45Q59.85-0.85 57.95-0.13 56.05 0.6 53.85 0.6L53.85 0.6Q49.45 0.6 47.07-1.78 44.7-4.15 44.7-8.8L44.7-8.8 44.7-25.05 47.4-25.05 47.4-8.3Q47.4-5.1 49.15-3.53 50.9-1.95 53.85-1.95L53.85-1.95Q56.95-1.95 58.85-3.5 60.75-5.05 60.75-8.3L60.75-8.3 60.75-18.15Q60.75-20.55 60.9-21.73 61.05-22.9 61.82-23.93 62.6-24.95 64.4-25.5L64.4-25.5 65.15-23.6Q63.45-22.85 63.45-20.1L63.45-20.1 63.45 3.05Q63.45 6.1 62.25 7.85 61.05 9.6 58.2 10.5L58.2 10.5 57.45 8.35ZM103.29-9.2Q103.29-5 100.99-2.25 98.69 0.5 94.04 0.5L94.04 0.5Q89.39 0.5 87.02-2.27 84.64-5.05 84.64-9.2L84.64-9.2 84.64-15.8Q84.64-20.55 87.07-23.08 89.49-25.6 94.04-25.6L94.04-25.6Q98.39-25.6 100.84-22.98 103.29-20.35 103.29-15.8L103.29-15.8 103.29-9.2ZM100.49-15.8Q100.49-19.55 98.77-21.3 97.04-23.05 94.04-23.05L94.04-23.05Q90.94-23.05 89.19-21.3 87.44-19.55 87.44-15.8L87.44-15.8 87.44-8.7Q87.44-5.7 89.22-3.85 90.99-2 94.04-2L94.04-2Q97.14-2 98.82-3.83 100.49-5.65 100.49-8.7L100.49-8.7 100.49-15.8ZM108.84 0L108.84-27.45Q108.84-31.6 110.94-33.55 113.04-35.5 116.14-35.5L116.14-35.5Q117.09-35.5 117.99-35.35L117.99-35.35 117.54-32.9Q116.64-33 116.24-33L116.24-33Q111.64-33 111.64-27.45L111.64-27.45 111.64-25.05 117.34-25.05 116.14-22.4 111.64-22.4 111.64 0 108.84 0ZM137.43 0L137.43-35 154.13-35 154.13-32.4 140.23-32.4 140.23-20.65 149.78-20.65 148.83-17.9 140.23-17.9 140.23-2.5 154.03-2.5 154.03 0 137.43 0ZM174.68-0.3Q171.58 0.5 168.68 0.5L168.68 0.5Q165.98 0.5 164.18-0.1L164.18-0.1Q161.23-1.1 159.91-3.18 158.58-5.25 158.58-9L158.58-9 158.58-15.4Q158.58-20.35 161.18-22.93 163.78-25.5 167.88-25.5L167.88-25.5Q171.13-25.5 174.58-23.9L174.58-23.9 173.78-21.85Q170.93-23 168.28-23L168.28-23Q165.18-23 163.28-21.23 161.38-19.45 161.38-15.7L161.38-15.7 161.38-8.45Q161.38-5 163.46-3.45 165.53-1.9 168.98-1.9L168.98-1.9Q171.23-1.9 174.08-2.55L174.08-2.55 174.68-0.3ZM198.48-9.2Q198.48-5 196.18-2.25 193.88 0.5 189.23 0.5L189.23 0.5Q184.58 0.5 182.2-2.27 179.83-5.05 179.83-9.2L179.83-9.2 179.83-15.8Q179.83-20.55 182.25-23.08 184.68-25.6 189.23-25.6L189.23-25.6Q193.58-25.6 196.03-22.98 198.48-20.35 198.48-15.8L198.48-15.8 198.48-9.2ZM195.68-15.8Q195.68-19.55 193.95-21.3 192.23-23.05 189.23-23.05L189.23-23.05Q186.13-23.05 184.38-21.3 182.63-19.55 182.63-15.8L182.63-15.8 182.63-8.7Q182.63-5.7 184.4-3.85 186.18-2 189.23-2L189.23-2Q192.33-2 194-3.83 195.68-5.65 195.68-8.7L195.68-8.7 195.68-15.8ZM219.03 0L219.03-17.15Q219.03-20.2 217.25-21.58 215.48-22.95 212.68-22.95L212.68-22.95Q210.98-22.95 209.23-22.48 207.48-22 206.13-21.25L206.13-21.25 206.13 0 203.33 0 203.33-25.05 206.13-25.05 205.93-23.35Q207.13-24.4 208.98-24.93 210.83-25.45 212.83-25.45L212.83-25.45Q215.58-25.45 217.53-24.55L217.53-24.55Q219.53-23.65 220.65-21.85 221.78-20.05 221.78-17.3L221.78-17.3 221.78 0 219.03 0ZM247.67-9.2Q247.67-5 245.37-2.25 243.07 0.5 238.42 0.5L238.42 0.5Q233.77 0.5 231.4-2.27 229.02-5.05 229.02-9.2L229.02-9.2 229.02-15.8Q229.02-20.55 231.45-23.08 233.87-25.6 238.42-25.6L238.42-25.6Q242.77-25.6 245.22-22.98 247.67-20.35 247.67-15.8L247.67-15.8 247.67-9.2ZM244.87-15.8Q244.87-19.55 243.15-21.3 241.42-23.05 238.42-23.05L238.42-23.05Q235.32-23.05 233.57-21.3 231.82-19.55 231.82-15.8L231.82-15.8 231.82-8.7Q231.82-5.7 233.6-3.85 235.37-2 238.42-2L238.42-2Q241.52-2 243.2-3.83 244.87-5.65 244.87-8.7L244.87-8.7 244.87-15.8ZM281.67 0L281.67-17.15Q281.67-20.15 280.1-21.55 278.52-22.95 276.02-22.95L276.02-22.95Q274.07-22.95 271.67-22.1L271.67-22.1 269.82-21.2Q270.67-19.5 270.67-17.3L270.67-17.3 270.67 0 267.92 0 267.92-17.15Q267.92-20.2 266.35-21.58 264.77-22.95 262.22-22.95L262.22-22.95Q260.67-22.95 259.02-22.48 257.37-22 256.02-21.25L256.02-21.25 256.02 0 253.22 0 253.22-25.05 256.02-25.05 255.77-23.45Q259.07-25.4 262.52-25.4L262.52-25.4Q264.32-25.4 265.9-24.8 267.47-24.2 268.57-23.05L268.57-23.05Q269.27-23.45 270.67-24.15L270.67-24.15Q273.62-25.5 276.37-25.5L276.37-25.5Q279.92-25.5 282.17-23.33 284.42-21.15 284.42-17.3L284.42-17.3 284.42 0 281.67 0ZM291.67-32.15Q291.02-32.15 290.49-32.68 289.97-33.2 289.97-33.85L289.97-33.85Q289.97-34.5 290.47-35 290.97-35.5 291.67-35.5L291.67-35.5Q292.37-35.5 292.84-35.02 293.32-34.55 293.32-33.85L293.32-33.85Q293.32-33.15 292.82-32.65 292.32-32.15 291.67-32.15L291.67-32.15ZM290.22 0L290.22-25.05 293.02-25.05 293.02 0 290.22 0ZM315.22-0.3Q312.12 0.5 309.22 0.5L309.22 0.5Q306.52 0.5 304.72-0.1L304.72-0.1Q301.77-1.1 300.44-3.18 299.12-5.25 299.12-9L299.12-9 299.12-15.4Q299.12-20.35 301.72-22.93 304.32-25.5 308.42-25.5L308.42-25.5Q311.67-25.5 315.12-23.9L315.12-23.9 314.32-21.85Q311.47-23 308.82-23L308.82-23Q305.72-23 303.82-21.23 301.92-19.45 301.92-15.7L301.92-15.7 301.92-8.45Q301.92-5 303.99-3.45 306.07-1.9 309.52-1.9L309.52-1.9Q311.77-1.9 314.62-2.55L314.62-2.55 315.22-0.3ZM334.26 0L334.26-35 337.06-35 337.06-2.5 352.31-2.5 352.31 0 334.26 0ZM357.96-32.15Q357.31-32.15 356.78-32.68 356.26-33.2 356.26-33.85L356.26-33.85Q356.26-34.5 356.76-35 357.26-35.5 357.96-35.5L357.96-35.5Q358.66-35.5 359.13-35.02 359.61-34.55 359.61-33.85L359.61-33.85Q359.61-33.15 359.11-32.65 358.61-32.15 357.96-32.15L357.96-32.15ZM356.51 0L356.51-25.05 359.31-25.05 359.31 0 356.51 0ZM367.5 0L367.5-27.45Q367.5-31.6 369.61-33.55 371.71-35.5 374.81-35.5L374.81-35.5Q375.75-35.5 376.66-35.35L376.66-35.35 376.21-32.9Q375.31-33 374.91-33L374.91-33Q370.31-33 370.31-27.45L370.31-27.45 370.31-25.05 376-25.05 374.81-22.4 370.31-22.4 370.31 0 367.5 0ZM394.5-1.75Q392.7-0.6 390.4 0 388.1 0.6 385.8 0.6L385.8 0.6Q382.1 0.6 379.93-1.23 377.75-3.05 377.75-6.7L377.75-6.7 377.75-16.95Q377.75-21 380.28-23.25 382.8-25.5 386.95-25.5L386.95-25.5Q391.1-25.5 393.43-23.28 395.75-21.05 395.75-17.1L395.75-17.1 395.75-10.6 380.55-9.75 380.55-6.7Q380.55-4.3 382.1-3.1 383.65-1.9 386.15-1.9L386.15-1.9Q389.65-1.9 393.4-3.9L393.4-3.9 394.5-1.75ZM392.95-17.45Q392.95-20.55 391-21.83 389.05-23.1 386.9-23.1L386.9-23.1Q384.15-23.1 382.35-21.6 380.55-20.1 380.55-16.9L380.55-16.9 380.55-12.5 392.95-13.1 392.95-17.45Z" opacity="1" transform="matrix(1,0,0,1,0,0)" fill="#000000" class="undefined-text-1" data-fill-palette-color="secondary" id="text-1"></path></svg></g></svg></g></svg></g></svg></g><g transform="matrix(1,0,0,1,426.98323067448257,0)"><svg viewBox="0 0 157.42980101190733 133.25178307358902" height="133.25178307358902" width="157.42980101190733"><g><svg xmlns="http://www.w3.org/2000/svg" xmlns:xlink="http://www.w3.org/1999/xlink" version="1.1" x="0" y="0" viewBox="1.7 8.3 86.6 73.30000000000001" enable-background="new 0 0 90 90" xml:space="preserve" height="133.25178307358902" width="157.42980101190733" class="icon-icon-0" data-fill-palette-color="accent" id="icon-0"><path d="M6.9 70.8h22.6l0 0L29.1 72l0 0v-0.1l-0.2 0.7H8.3l0 0H8.2c-2.5 0-4.5 2-4.5 4.5s2 4.5 4.5 4.5 4.5-2 4.5-4.5c0-0.6-0.1-1.1-0.3-1.6h15.5c-0.2 0.5-0.3 1-0.3 1.6 0 2.5 2 4.5 4.5 4.5s4.5-2 4.5-4.5c0-2.4-2-4.5-4.5-4.5H32l8-23.3h2.9c0.5 0.7 1.3 1.3 2.3 1.3 0.4 0 0.8-0.1 1.2-0.3 1.4 1 3.1 1.4 4.9 1.1l0.2 1.1 6.3-1.3v18.7c-0.1 0-0.1 0-0.1 0-3.4 0-6.3 2.9-6.4 6.4v3.9h4.5 13 9.4l0 0 0 0V57.9c0.3 0.2 0.7 0.3 1.1 0.3h6.5c1.4 0 2.5-1.1 2.5-2.5V27.8c0-1.4-1.1-2.5-2.5-2.5H81c0.4-2.3 0.2-4.8-0.6-7.2-1.3-3.6-4-6.6-7.5-8.3-2.1-1-4.3-1.5-6.6-1.5-5.5 0-10.5 3.1-12.9 8-1.7 3.4-1.9 7.3-0.6 11 1.2 3.4 3.5 6.1 6.6 7.9-0.3 0.4-0.5 0.8-0.7 1.2-0.6 0.7-0.8 4.4-0.8 5.6l-8.2 1.6 0.2 0.9-3.7 0.8c-0.3-0.1-0.6-0.2-1-0.2-1 0-1.8 0.4-2.3 1.3H39c-0.1 0-0.1 0-0.2 0-0.6 0.1-1 0.5-1.2 1L36 52l0 0H1.7L2 52.9l4.8 17.3 0.1 0.5V70.8zM59.8 37L59.8 37c0.2-0.4 0.5-0.8 0.7-1.2 2 0.9 4.1 1.4 6.3 1.4l0 0c2.9 0 5.6-0.8 7.9-2.3 1.3 1.7 2.1 3.8 2.1 6v35h-8.1c-0.3-3-2.6-5.5-5.5-5.9V59.1h-1.1v10.8c-0.7 0-1.4 0.1-2.1 0.4-0.3-0.1-0.6-0.2-0.9-0.3V50.9l6.1-1.2c2.4-0.5 4-2.9 3.5-5.3s-2.9-4-5.3-3.5l-4.1 0.8C59.4 40.1 59.6 37.6 59.8 37zM61.7 11.1c1.5 0.7 6.4 3.4 7.7 6.8V18c0.1 0.2 0.1 0.3 0.1 0.3 0.2 0.8 0.3 2.4-0.9 5-2 4-6.1 6.6-10.5 6.6-1 0-1.9-0.1-2.8-0.3-0.5-0.8-1-1.7-1.3-2.7-1.2-3.3-1-6.9 0.5-10 1.4-2.8 3.7-4.9 6.4-6.1C61.4 11 61.7 11.2 61.7 11.1zM78.5 28.7c-0.8 1.8-2.1 3.3-3.6 4.5-0.2 0.2-0.3 0.3-0.5 0.4 0 0.1-0.1 0.1-0.1 0.1-0.1 0.1-0.3 0.2-0.5 0.3-2.1 1.3-4.5 2-7 2-2.1 0-4.1-0.5-6-1.4-0.2-0.1-0.5-0.3-0.7-0.4-1.7-1-3.1-2.2-4.2-3.7 0.7 0.1 1.5 0.2 2.2 0.2 4.7 0 9-2.8 11.1-7 1.3-2.6 1.2-4.5 1-5.5 0 0 0-0.1-0.1-0.3v-0.1c-0.5-1.2-2.1-4.3-8.1-7.2 0 0-0.1 0-0.2-0.1 1.4-0.5 2.9-0.8 4.5-0.8 2.1 0 4.1 0.5 6 1.4 3.2 1.6 5.6 4.3 6.8 7.6C80.3 22 80.1 25.5 78.5 28.7zM78.1 31.8c0.6-0.8 1.2-1.6 1.6-2.5 0.4-0.9 0.8-1.7 1-2.6h5.1c0.6 0 1.1 0.5 1.1 1.1v27.9c0 0.6-0.5 1.1-1.1 1.1h-6.6c-0.6 0-1.1-0.5-1.1-1.1V31.8L78.1 31.8zM76.9 33.1L76.9 33.1l-0.1 2.6c-0.3-0.6-0.6-1.1-1-1.6C76.2 33.8 76.5 33.5 76.9 33.1zM57.2 77.2h6.9l0 0h12.7l0 0v1.7H57.2V77.2zM57.7 75.9h-0.6c0-0.7 0.2-1.3 0.5-1.8 0.3-0.7 0.7-1.2 1.3-1.7 0.3-0.2 0.6-0.4 0.9-0.6 0.5-0.2 1-0.4 1.6-0.5 0.1-0.1 0.3-0.1 0.5-0.1 0.1 0 0.1 0 0.2 0 0.2 0 0.3 0 0.5 0s0.3 0.1 0.5 0.1c2.1 0.4 3.8 2.3 4.1 4.5H64h-0.8-0.5l0 0H62h-3l0 0L57.7 75.9 57.7 75.9zM52.8 77.2h2.9v1.7h-2.9V77.2zM58.3 71.2c-0.2 0.1-0.4 0.3-0.6 0.5-1.1 1.1-1.8 2.5-2 4.1h-3.1c0.4-2.6 2.5-4.6 5.1-4.6C57.7 71.2 58 71.2 58.3 71.2zM51.3 44.7l8-1.6 0 0 0 0 4.5-0.9c1.7-0.3 3.4 0.8 3.7 2.5 0.3 1.7-0.8 3.4-2.5 3.7l-12.5 2.5L51.3 44.7zM45.3 47.1l4.2-0.9 0.9 4.1C48.2 50.3 46.2 49.1 45.3 47.1zM9.7 77.1c0 0.9-0.7 1.6-1.6 1.6S6.5 78 6.5 77.1s0.7-1.6 1.6-1.6l0 0c0 0 0.1 0 0.2 0l0 0C9.2 75.6 9.8 76.3 9.7 77.1zM21.8 69.3l0.2-4.9h5l-0.9 4.9H21.8zM21.7 64.2h-5l-0.3-5.1h5.5L21.7 64.2zM16.5 64.2h-4.9l-0.8-5.1h5.4L16.5 64.2zM16.8 64.4h4.9l-0.2 4.9H17L16.8 64.4zM12.4 69.3l-0.7-4.9h4.8l0.3 4.9H12.4zM6.7 64.4h4.7l0.7 4.9H8L6.7 64.4zM5.2 59.1h5.4l0.8 5.1H6.6L5.2 59.1zM9.6 53.5l0.8 5.1H5l-1.4-5.1H9.6zM16.2 58.6h-5.4L10 53.5h5.9L16.2 58.6zM22.2 53.5L22 58.6h-5.5l-0.3-5.1H22.2zM22.3 59.1H28l-1 5.1h-5L22.3 59.1zM28.9 53.5L28 58.6h-5.8l0.2-5.1H28.9zM33.7 58.6h-5.4l0.9-5.1h6.3L33.7 58.6zM31.9 64.2h-4.5l0.9-5.1h5.3L31.9 64.2zM30.4 77.1c0-0.9 0.7-1.6 1.6-1.6 0.9 0 1.6 0.7 1.6 1.6s-0.7 1.6-1.6 1.6C31.1 78.7 30.4 78 30.4 77.1zM26.4 69.3l0.9-4.9h4.4L30 69.3H26.4zM85.1 31.2c0.4 0 0.7 0.3 0.7 0.7s-0.3 0.7-0.7 0.7H80c-0.4 0-0.7-0.3-0.7-0.7s0.3-0.7 0.7-0.7H85.1zM80 33.3h5.1c0.4 0 0.7 0.3 0.7 0.7s-0.3 0.7-0.7 0.7H80c-0.4 0-0.7-0.3-0.7-0.7S79.6 33.3 80 33.3zM80 35.3h5.1c0.4 0 0.7 0.3 0.7 0.7s-0.3 0.7-0.7 0.7H80c-0.4 0-0.7-0.3-0.7-0.7C79.3 35.7 79.6 35.4 80 35.3z" fill="#000000" data-fill-palette-color="accent"></path></svg></g></svg></g></svg></g><defs></defs></svg><rect width="395.52" height="90.18235799633575" fill="none" stroke="none" visibility="hidden"></rect></g></svg></g></svg>